<?xml version="1.0" standalone="no"?><!DOCTYPE svg PUBLIC "-//W3C//DTD SVG 1.1//EN" "http://www.w3.org/Graphics/SVG/1.1/DTD/svg11.dtd"><svg t="1747236722850" class="icon" viewBox="0 0 1024 1024" version="1.1" xmlns="http://www.w3.org/2000/svg" p-id="1590" width="1024" height="1024" xmlns:xlink="http://www.w3.org/1999/xlink"><path d="M808 304H704v-64c0-35.35-28.65-64-64-64H384c-35.35 0-64 28.65-64 64v64H216c-35.35 0-64 28.65-64 64v103.71c0 23.49 12.73 44.29 32 55.42V784c0 35.35 28.65 64 64 64h528c35.35 0 64-28.65 64-64V527.14c19.27-11.14 32-31.93 32-55.42V368c0-35.35-28.65-64-64-64z m-424-32v-32h256v64H384v-32z m-168 96h592v103.7c-54.54 6.69-140.48 16.4-216 21.27V488c0-17.67-14.33-32-32-32h-96c-17.67 0-32 14.33-32 32v4.97c-75.52-4.87-161.46-14.58-216-21.27V368z m312 152v32h-32v-32h32z m248 104v160H248V539.98c53.74 6.2 122.17 13.26 184 17.12V584c0 17.67 14.33 32 32 32h96c17.67 0 32-14.33 32-32v-26.91c61.83-3.86 130.26-10.92 184-17.12V624z" p-id="1591" fill="#707070"></path></svg>