<?xml version="1.0" standalone="no"?><!DOCTYPE svg PUBLIC "-//W3C//DTD SVG 1.1//EN" "http://www.w3.org/Graphics/SVG/1.1/DTD/svg11.dtd"><svg t="1747270075691" class="icon" viewBox="0 0 1024 1024" version="1.1" xmlns="http://www.w3.org/2000/svg" p-id="8468" xmlns:xlink="http://www.w3.org/1999/xlink" width="1024" height="1024"><path d="M902.144 550.912h-29.184c-18.944 0-34.816-14.336-35.328-33.792-1.024-19.968 12.8-36.352 32.768-37.376 22.016-1.536 43.52-1.536 65.536 0 18.432 1.024 32.768 18.432 31.744 37.376-1.024 18.432-15.872 33.28-34.816 33.792h-30.72z m-780.8 0H92.16c-18.944 0-34.816-14.848-35.84-34.304-1.536-18.944 13.312-35.84 32.256-37.376 22.016-1.536 43.52-1.536 65.536 0 18.432 1.024 32.768 17.92 31.744 36.864-0.512 18.432-15.872 33.792-34.816 34.816h-29.696zM209.92 180.224c12.8 0 21.504 3.584 28.16 10.24 13.824 13.824 27.648 27.136 41.472 41.472 13.824 13.824 14.336 35.84 1.024 50.176-13.312 14.336-35.328 14.848-49.664 2.048-14.848-14.336-30.208-29.184-44.032-44.032-10.24-10.752-12.288-24.576-6.144-38.912 4.096-12.288 15.872-20.48 29.184-20.992z m631.808 631.808c-0.512 13.824-8.704 25.6-21.504 30.72-13.312 6.144-28.672 3.584-38.912-6.656-14.336-13.824-28.672-28.16-43.008-43.008-13.824-14.336-13.312-36.864 1.024-50.688 14.336-13.824 36.864-13.312 50.688 1.024l41.472 41.472c6.656 6.144 10.24 14.848 10.24 27.136z m-628.224 31.232c-13.824 0-26.112-8.704-30.72-21.504-6.144-14.336-4.608-27.136 6.144-38.912 13.824-14.336 28.16-29.184 43.008-43.008 14.336-13.824 36.352-13.824 50.176 0l1.024 1.024c13.824 14.336 13.312 35.84-2.048 51.2l-39.936 39.936c-7.68 7.168-17.408 11.264-27.648 11.264zM547.84 121.856v29.184c0.512 19.456-15.36 35.84-34.816 36.352h-1.024c-19.456 0-35.328-15.872-35.328-35.328v-1.024-57.344c-0.512-19.456 15.36-35.84 34.816-36.352h1.024c19.456 0 35.328 15.872 35.328 35.328v29.184z m219.648 168.96c-14.336 0.512-27.648-8.192-33.28-22.016-5.632-13.312-2.56-28.672 7.68-38.912 13.824-13.824 26.624-27.136 40.448-40.448 16.384-15.872 39.936-14.848 54.272 2.048 11.264 14.336 10.24 34.304-2.048 47.616l-42.496 42.496c-6.656 6.144-15.872 9.728-24.576 9.216zM547.84 902.656v28.16c0.512 19.456-15.36 35.84-34.816 35.84h-1.024c-19.456 0-35.328-15.872-35.328-35.328v-0.512-57.856c-0.512-19.456 14.848-35.328 34.304-35.84h1.536c19.968 0 35.328 15.36 35.328 35.84v29.696zM512 325.632h1.024c49.664 0.512 96.256 19.968 131.072 54.784 34.816 34.816 53.76 81.408 53.76 131.072v1.024c0.512 49.152-18.944 95.232-53.76 130.56-35.328 35.328-82.432 55.296-132.608 55.296h-3.584c-49.664-1.024-95.744-21.504-130.56-56.832-34.304-35.84-53.248-82.944-52.224-132.608 0.512-48.64 19.968-94.208 54.272-128.512 35.84-35.328 82.432-54.784 132.608-54.784m0-73.216c-145.92 0-258.048 117.76-259.584 255.488-2.048 142.848 111.616 260.608 254.464 263.68h5.12c144.896 0 260.608-118.272 259.584-259.584 0.512-142.848-114.688-258.56-257.536-259.584h-2.048z" p-id="8469" fill="#d6d6d6"></path></svg>